<?xml version="1.0" standalone="no"?><!DOCTYPE svg PUBLIC "-//W3C//DTD SVG 1.1//EN" "http://www.w3.org/Graphics/SVG/1.1/DTD/svg11.dtd"><svg t="1511770526585" class="icon" style="" viewBox="0 0 1024 1024" version="1.1" xmlns="http://www.w3.org/2000/svg" p-id="1938" xmlns:xlink="http://www.w3.org/1999/xlink" width="16" height="16"><defs><style type="text/css"></style></defs><path d="M922.02 431.967c20.124 0.275 36.397-15.675 36.813-35.614l1.65-110.559c0.693-50.467-42.876-95.023-93.751-95.709l-703.138-7.149c-25.365-0.278-49.496 9.21-67.557 26.948C77.84 227.491 67.77 251.28 67.5 276.306L65.843 386.59c-0.275 9.622 3.585 18.978 10.206 25.852 5.927 5.912 15.85 10.862 25.504 10.862 44.948 0.55 83.962 40.292 83.408 85.396-0.275 22.548-9.23 43.587-25.367 59.402-16.264 15.675-37.502 24.197-60.112 23.926-20.127-0.278-36.399 15.675-36.813 35.616L61.019 738.2c-0.413 25.717 9.509 49.918 27.71 68.068 17.506 17.464 40.952 27.361 66.04 27.642l703.413 7.15c25.367 0.273 49.362-9.351 67.425-27.096 18.195-17.595 28.256-41.385 28.398-66.273l1.795-110.42c0.277-9.628-3.585-18.978-10.207-25.852-7.033-5.913-15.853-10.866-25.51-10.868-45.21-0.544-84.23-40.289-83.682-85.393 0.415-22.413 9.38-43.726 25.505-59.266 16.138-15.538 37.506-24.2 60.114-23.926zM639.386 610.178H352.888c-9.923 0-19.022-4.123-25.498-10.587-6.62-6.597-10.619-15.536-10.619-25.717 0-20.074 16.133-36.163 36.26-36.168l286.357 0.14c20.124 0 36.258 16.094 36.264 36.168-0.002 20.08-16.134 36.168-36.266 36.164z m0.136-153.045l-286.492 0.276c-10.065-0.14-19.028-4.128-25.648-10.73-6.613-6.595-10.613-15.537-10.613-25.715 0-20.072 16.132-36.161 36.26-36.164l286.493 0.003c20.132-0.003 36.264 16.086 36.264 36.164-0.006 20.074-16.132 36.162-36.264 36.166z" p-id="1939" fill="#ffffff"></path></svg>