<?xml version="1.0" standalone="no"?><!DOCTYPE svg PUBLIC "-//W3C//DTD SVG 1.1//EN" "http://www.w3.org/Graphics/SVG/1.1/DTD/svg11.dtd"><svg t="1515142478920" class="icon" style="" viewBox="0 0 1024 1024" version="1.1" xmlns="http://www.w3.org/2000/svg" p-id="16342" xmlns:xlink="http://www.w3.org/1999/xlink" width="21" height="21"><defs><style type="text/css"></style></defs><path d="M612.57 19.014a45.57 45.57 0 0 0-7.57-0.934c-22.649-0.867-42.47 14.62-47.033 36.866-2.514 12.072-0.173 24.412 6.636 34.749 6.785 10.325 17.183 17.38 29.267 19.844 97.276 20.08 181.025 76.94 235.798 160.106 54.755 83.2 73.843 182.582 53.825 279.853-2.514 12.112-0.174 24.425 6.635 34.739 6.787 10.324 17.19 17.368 29.274 19.865a51.61 51.61 0 0 0 7.587 0.93c9.692 0.369 19.066-2.267 27.173-7.592 10.32-6.798 17.374-17.207 19.866-29.28 51.699-251.039-110.43-497.408-361.457-549.146z m79.578 694.31c2.732 1.785 63.732 40.946 110.597 89.083 17.65 18.21 47.209 48.675 46.43 84.018-0.66 24.144-14.284 48.356-41.67 73.917-6.808 6.685-67.807 63.658-165.397 63.658-26.732 0-54.19-4.244-81.626-12.598-28.827-8.736-58.144-22.236-87.048-40.053-114.113-67.398-202.185-154.176-285.811-281.46C43.878 471.132 39.751 283.774 40.413 248.464 40.652 85.506 176.374 21.405 191.845 14.62 213.134 4.747 231.736 0 248.869 0c8.203 0 16.064 1.108 23.332 3.331 14.967 4.541 35.74 16.305 49.7 46.548 19.042 41.037 37.056 99.863 49.358 161.45 12.939 63.915-22.897 81.856-57.557 99.197l-1.371 0.6s-61.318 25.582-72.101 30.022c-10.595 4.418-16.116 16.356-12.498 27.268 24.726 74.914 62.488 152.598 109.157 224.65 45.914 70.905 100.519 136.332 157.879 189.302 4.104 3.734 9.373 5.834 14.945 5.834l1.875-0.1c6.03-0.487 11.72-3.54 15.505-8.394 9.321-11.988 23.623-29.256 38.712-43.625 28.607-27.2 54.482-40.41 79.085-40.41 6.737 0 13.427 0.991 19.873 2.958 6.17 1.892 16.153 7.261 27.385 14.692zM498.043 397.985c-12.11-2.514-22.509-9.54-29.296-19.854-6.836-10.325-9.177-22.678-6.686-34.783 4.638-22.224 24.409-37.728 47.035-36.82 2.514 0.071 5.056 0.374 7.593 0.9 107.283 22.117 176.579 127.447 154.49 234.774-2.47 12.032-9.497 22.419-19.821 29.267-8.13 5.308-17.548 7.934-27.168 7.592-2.491-0.133-5.029-0.419-7.57-0.952-12.128-2.457-22.555-9.535-29.34-19.871-6.782-10.292-9.127-22.604-6.636-34.71 5.71-27.779 0.291-56.145-15.38-79.891-15.623-23.702-39.471-39.934-67.22-45.652zM546.08 253.19c-24.952-5.174-41.06-29.643-35.937-54.577 4.592-22.274 24.362-37.79 47.017-36.91 2.487 0.113 5.052 0.404 7.587 0.941 86.828 17.906 161.524 68.625 210.44 142.894 48.842 74.22 65.902 162.906 47.99 249.734-2.49 12.106-9.546 22.532-19.871 29.28-8.125 5.358-17.476 7.984-27.14 7.602a46.904 46.904 0 0 1-7.62-0.951c-24.895-5.112-41.032-29.598-35.903-54.577 12.912-62.65 0.61-126.701-34.688-180.314-35.298-53.591-89.192-90.215-151.875-103.122z m0 0" p-id="16343" fill="#bbbbbb"></path></svg>