<?xml version="1.0" standalone="no"?><!DOCTYPE svg PUBLIC "-//W3C//DTD SVG 1.1//EN" "http://www.w3.org/Graphics/SVG/1.1/DTD/svg11.dtd"><svg t="1515143082444" class="icon" style="" viewBox="0 0 1164 1024" version="1.1" xmlns="http://www.w3.org/2000/svg" p-id="20562" xmlns:xlink="http://www.w3.org/1999/xlink" width="23.87109375" height="21"><defs><style type="text/css"></style></defs><path d="M77.913043 217.043478l0 422.956522c0 83.478261 66.782609 150.26087 150.26087 150.26087l222.608696 0 5.565217 189.217391 222.608696-189.217391 250.434783 0c83.478261 0 150.26087-66.782609 150.26087-150.26087L1079.652174 217.043478c0-83.478261-66.782609-150.26087-150.26087-150.26087L228.173913 66.782609C144.695652 72.347826 77.913043 139.130435 77.913043 217.043478L77.913043 217.043478zM723.478261 456.347826c0-38.956522 33.391304-72.347826 72.347826-72.347826 38.956522 0 72.347826 33.391304 72.347826 72.347826S834.782609 523.130435 795.826087 523.130435C756.869565 523.130435 723.478261 495.304348 723.478261 456.347826L723.478261 456.347826zM506.434783 456.347826c0-38.956522 33.391304-72.347826 72.347826-72.347826 38.956522 0 72.347826 33.391304 72.347826 72.347826s-33.391304 72.347826-72.347826 72.347826C539.826087 523.130435 506.434783 495.304348 506.434783 456.347826L506.434783 456.347826zM294.956522 456.347826c0-38.956522 33.391304-72.347826 72.347826-72.347826 38.956522 0 72.347826 33.391304 72.347826 72.347826S406.26087 523.130435 367.304348 523.130435C328.347826 523.130435 294.956522 495.304348 294.956522 456.347826L294.956522 456.347826zM294.956522 456.347826" p-id="20563" fill="#bbbbbb"></path></svg>