<?xml version="1.0" standalone="no"?><!DOCTYPE svg PUBLIC "-//W3C//DTD SVG 1.1//EN" "http://www.w3.org/Graphics/SVG/1.1/DTD/svg11.dtd"><svg t="1515142441703" class="icon" style="" viewBox="0 0 1024 1024" version="1.1" xmlns="http://www.w3.org/2000/svg" p-id="14722" xmlns:xlink="http://www.w3.org/1999/xlink" width="21" height="21"><defs><style type="text/css"></style></defs><path d="M714.13572 367.141798l138.478911 0c18.547425 41.264822 29.664623 86.470397 31.527041 134.185118l-158.888753 0C724.579583 450.885084 720.40961 406.451082 714.13572 367.141798zM653.619438 177.277566c79.432097 30.874171 144.627958 89.290629 185.496761 163.030074L709.60452 340.307639C694.907797 265.199011 672.598698 211.818243 653.619438 177.277566zM537.631774 340.306616 537.631774 153.00065c28.564569 1.252527 56.267515 5.7694 82.779332 13.198603 20.125363 33.812083 46.053895 90.291422 62.432934 174.108387L537.631774 340.307639zM361.429703 662.346193c-6.271844-39.336914-10.619872-83.516112-11.267625-134.184095l160.627351 0 0 134.184095L361.429703 662.346193zM361.167736 367.141798l149.620669 0 0 134.185118L350.009605 501.326916C350.687034 450.845175 354.890776 406.466432 361.167736 367.141798zM428.359045 165.608805c26.454512-7.102768 53.951773-11.650341 82.429361-12.564154l0 187.261964-145.196916 0C382.066719 256.018931 408.188656 199.348234 428.359045 165.608805zM205.359135 340.306616c41.535999-74.947969 108.776426-133.686768 190.021821-164.134221-19.104103 34.521235-41.738613 88.217181-56.586786 164.134221L205.359135 340.306616zM323.166237 501.326916 160.895457 501.326916c1.790786-47.682999 12.511965-93.001137 31.023574-134.185118l142.372591 0C328.015685 406.460292 323.840596 450.888154 323.166237 501.326916zM334.601684 662.346193 192.939267 662.346193c-18.58631-41.318034-30.484292-86.308715-32.242332-134.184095L323.294151 528.162098C323.939857 578.832128 328.322677 622.974487 334.601684 662.346193zM339.003947 689.181375c14.957667 76.674287 37.908378 130.312928 57.134255 164.433026-81.539085-30.344099-148.809187-89.290629-190.396351-164.433026L339.003947 689.181375zM510.788405 689.181375l0 187.264011c-28.158317-0.904603-55.361889-5.354961-81.545224-12.31242-20.205181-33.117258-46.479591-90.048899-63.10934-174.951591L510.788405 689.181375zM682.301687 689.181375c-16.529465 84.394109-42.592051 141.133368-62.753229 174.329421-26.208918 7.274684-53.712319 11.195993-81.916684 12.446473L537.631774 689.181375 682.301687 689.181375zM537.631774 528.162098l160.626327 0c-0.647753 50.674123-4.998851 94.844112-11.271718 134.184095L537.631774 662.346193 537.631774 528.162098zM698.40955 501.326916 537.631774 501.326916 537.631774 367.141798l149.619646 0C693.529403 406.464385 697.731098 450.843128 698.40955 501.326916zM725.129098 528.162098l158.724001 0c-1.774413 47.836495-13.585413 92.846618-32.078603 134.184095L713.821565 662.346193C720.097502 622.977557 724.481346 578.840314 725.129098 528.162098zM838.922794 689.181375c-40.762379 74.045413-106.265232 132.494617-186.04116 163.30125 19.107173-34.165124 41.763173-87.419002 56.565297-163.30125L838.922794 689.181375z" p-id="14723" fill="#bbbbbb"></path></svg>