<?xml version="1.0" standalone="no"?><!DOCTYPE svg PUBLIC "-//W3C//DTD SVG 1.1//EN" "http://www.w3.org/Graphics/SVG/1.1/DTD/svg11.dtd"><svg t="1515142394138" class="icon" style="" viewBox="0 0 1024 1024" version="1.1" xmlns="http://www.w3.org/2000/svg" p-id="12547" xmlns:xlink="http://www.w3.org/1999/xlink" width="21" height="21"><defs><style type="text/css"></style></defs><path d="M606.41944 963.39162" p-id="12548" fill="#bbbbbb"></path><path d="M443.48658 651.910517l-110.502743 0.090051-0.073678-91.463108-0.008186-10.407024c109.199051-17.954931 192.552457-112.555495 192.459337-226.824005C525.258978 196.303898 422.218184 93.430926 295.213605 93.53428c-127.002532 0.103354-229.875504 103.143125-229.77215 230.145657 0.092098 114.267487 83.599 208.733998 192.824657 226.511897l0.008186 10.407024 0.073678 91.463108-113.40484 0.092098c-20.61041 0.016373-37.304627 16.737196-37.287231 37.347606 0.016373 20.608364 16.737196 37.304627 37.347606 37.287231l113.40484-0.092098 0.107447 132.443451c0.016373 20.61041 16.737196 37.304627 37.347606 37.287231s37.304627-16.737196 37.287231-37.347606l-0.107447-132.443451 110.502743-0.089028c20.61041-0.016373 37.304627-16.739243 37.287231-37.347606C480.818837 668.587338 464.098014 651.894144 443.48658 651.910517z" p-id="12549" fill="#bbbbbb"></path><path d="M764.707512 439.418938l-0.176009-217.711464 69.830415 70.962192c7.294127 7.42818 16.95516 11.156084 26.612101 11.147898 9.438976-0.007163 18.874883-3.568269 26.157753-10.717086 14.675234-14.461363 14.874779-38.077224 0.394996-52.769854L778.872117 129.86779c-6.202259-8.085142-20.426215-22.815635-43.315528-25.475208-14.031575-1.701758-35.713386 1.067308-57.889455 23.260773-28.585035 28.667923-110.841457 113.00882-110.841457 113.00882l0.134053 0.132006c-6.5246 6.727215-10.616802 15.838733-10.608615 25.952068 0.016373 20.61041 16.737196 37.304627 37.347606 37.287231 10.44284-0.008186 19.821441-4.350075 26.589588-11.268648l0.004093 0.004093c0 0 36.770462-37.72623 69.601194-71.200622l0.177032 217.909985c-109.199051 17.954931-192.552457 112.558565-192.459337 226.824005 0.103354 127.004579 103.143125 229.877551 230.147704 229.77522S957.63757 792.93439 957.534216 665.929812C957.442118 551.665395 873.935216 457.196837 764.707512 439.418938z" p-id="12550" fill="#bbbbbb"></path></svg>