<?xml version="1.0" standalone="no"?><!DOCTYPE svg PUBLIC "-//W3C//DTD SVG 1.1//EN" "http://www.w3.org/Graphics/SVG/1.1/DTD/svg11.dtd"><svg t="1515484217323" class="icon" style="" viewBox="0 0 1024 1024" version="1.1" xmlns="http://www.w3.org/2000/svg" p-id="2865" xmlns:xlink="http://www.w3.org/1999/xlink" width="32" height="32"><defs><style type="text/css"></style></defs><path d="M956.032 0H68.032C30.464 0 0 30.464 0 68.032v888C0 993.536 30.464 1024 68.032 1024h888c37.504 0 67.968-30.464 67.968-67.968V68.032C1024 30.464 993.536 0 956.032 0z m-266.816 283.904H624.832c-23.488 0-39.36 4.928-47.616 14.784-8.192 9.792-12.288 24.576-12.288 44.288V420.48h120.192l-16 121.408H564.928v311.36H439.36V541.952H334.784V420.48h104.64V331.072c0-50.88 14.208-90.304 42.688-118.336 28.416-28.032 66.304-42.048 113.664-42.048 40.192 0 71.36 1.664 93.568 4.928v108.288z" fill="#000000" p-id="2866"></path></svg>