<?xml version="1.0" standalone="no"?><!DOCTYPE svg PUBLIC "-//W3C//DTD SVG 1.1//EN" "http://www.w3.org/Graphics/SVG/1.1/DTD/svg11.dtd"><svg t="1514965150524" class="icon" style="" viewBox="0 0 1024 1024" version="1.1" xmlns="http://www.w3.org/2000/svg" p-id="2933" xmlns:xlink="http://www.w3.org/1999/xlink" width="32" height="32"><defs><style type="text/css"></style></defs><path d="M911.592285 826.813231h-799.18457c-19.340062 0-36.326571 16.986509-36.326572 36.326571s16.986509 36.326571 36.326572 36.326572h799.18457c19.340062 0 36.326571-16.986509 36.326572-36.326572s-16.986509-36.326571-36.326572-36.326571z m-799.18457-72.653143h799.18457c19.340062 0 36.326571-16.986509 36.326572-36.326571 0-215.503548-142.850405-397.136405-334.204457-447.993605 4.809433-12.074748 7.265314-24.251824 7.265314-36.326571 0-60.578395-48.401319-108.979714-108.979714-108.979715s-108.979714 48.401319-108.979714 108.979715c0 12.074748 2.455881 26.605376 7.265314 36.326571-191.354052 50.8572-334.204457 232.490057-334.204457 447.993605 0 19.44239 16.986509 36.326571 36.326572 36.326571z m372.986909-496.497252c-7.265314-7.265314-9.721195-14.530629-9.721195-24.251824 0-19.340062 16.986509-36.326571 36.326571-36.326571s36.326571 16.986509 36.326571 36.326571c0 9.721195-2.455881 16.986509-9.721195 24.251824v2.455881c-9.721195 0-16.986509-2.455881-26.605376-2.455881h-26.605376z" p-id="2934" fill="#ffffff"></path></svg>