<?xml version="1.0" standalone="no"?><!DOCTYPE svg PUBLIC "-//W3C//DTD SVG 1.1//EN" "http://www.w3.org/Graphics/SVG/1.1/DTD/svg11.dtd"><svg t="1515142408672" class="icon" style="" viewBox="0 0 1097 1024" version="1.1" xmlns="http://www.w3.org/2000/svg" p-id="13342" xmlns:xlink="http://www.w3.org/1999/xlink" width="22.4970703125" height="21"><defs><style type="text/css"></style></defs><path d="M538.41474 0c143.737353 0 260.202345 114.578224 260.202345 255.914238 0 141.336013-116.464992 255.914238-260.202345 255.914238-143.737353 0-260.202345-114.578224-260.202345-255.914238C278.212395 114.578224 394.677387 0 538.41474 0z" p-id="13343" fill="#bbbbbb"></path><path d="M538.41474 0c143.737353 0 260.202345 114.578224 260.202345 255.914238 0 141.336013-116.464992 255.914238-260.202345 255.914238-143.737353 0-260.202345-114.578224-260.202345-255.914238C278.212395 114.578224 394.677387 0 538.41474 0zM440.81742 597.247571h216.806701c185.58928 0 336.187605 148.025461 336.187604 330.698828v21.269011c0 72.040201-150.598325 74.78459-336.187604 74.78459H440.81742c-185.58928 0-336.187605 0-336.187604-74.78459V927.946399c0-182.673367 150.598325-330.698827 336.187604-330.698828z" p-id="13344" fill="#bbbbbb"></path></svg>