<?xml version="1.0" standalone="no"?><!DOCTYPE svg PUBLIC "-//W3C//DTD SVG 1.1//EN" "http://www.w3.org/Graphics/SVG/1.1/DTD/svg11.dtd"><svg t="1515144411980" class="icon" style="" viewBox="0 0 1024 1024" version="1.1" xmlns="http://www.w3.org/2000/svg" p-id="37930" xmlns:xlink="http://www.w3.org/1999/xlink" width="21" height="21"><defs><style type="text/css"></style></defs><path d="M846.278122 1018.657391 70.531339 1018.657391C31.565913 1018.657391 0 987.19833 0 948.402087L0 175.611548c0-38.796243 31.565913-70.255304 70.531339-70.255304l70.522435 0 0 35.145461c0 58.189913 47.353322 105.365148 105.774748 105.365148 58.421426 0 105.765843-47.175235 105.765843-105.365148l0-35.145461 211.567304 0 0 35.145461c0 58.189913 47.380035 105.365148 105.801461 105.365148 58.421426 0 105.774748-47.175235 105.774748-105.365148l0-35.145461 70.522435 0c38.947617 0 70.531339 31.459061 70.531339 70.255304l0 772.790539C916.809461 987.19833 885.225739 1018.657391 846.278122 1018.657391zM846.278122 351.267617 70.531339 351.267617l0 597.13447 775.746783 0L846.278122 351.267617zM246.837426 526.870261 141.062678 526.870261 141.062678 421.496209l105.774748 0L246.837426 526.870261zM246.837426 702.52633 141.062678 702.52633 141.062678 597.13447l105.774748 0L246.837426 702.52633zM246.837426 878.164591 141.062678 878.164591 141.062678 772.763826l105.774748 0L246.837426 878.164591zM423.143513 526.870261 317.342052 526.870261 317.342052 421.496209l105.801461 0L423.143513 526.870261zM423.143513 702.52633 317.342052 702.52633 317.342052 597.13447l105.801461 0L423.143513 702.52633zM423.143513 878.164591 317.342052 878.164591 317.342052 772.763826l105.801461 0L423.143513 878.164591zM599.4496 526.870261 493.665948 526.870261 493.665948 421.496209l105.774748 0L599.440696 526.870261zM599.4496 702.52633 493.665948 702.52633 493.665948 597.13447l105.774748 0L599.440696 702.52633zM599.4496 878.164591 493.665948 878.164591 493.665948 772.763826l105.774748 0L599.440696 878.164591zM775.755687 526.870261 669.980939 526.870261 669.980939 421.496209l105.774748 0L775.755687 526.870261zM775.755687 702.52633 669.980939 702.52633 669.980939 597.13447l105.774748 0L775.755687 702.52633zM775.755687 878.164591 669.980939 878.164591 669.980939 772.763826l105.774748 0L775.755687 878.164591zM668.885704 210.748104c-38.351026 0-69.436104-30.969322-69.436104-69.168974L599.4496 69.142261c0-38.199652 31.085078-69.142261 69.436104-69.142261 38.324313 0 69.418296 30.942609 69.418296 69.142261l0 72.445774C738.304 179.787687 707.201113 210.748104 668.885704 210.748104zM245.742191 210.748104c-38.351026 0-69.436104-30.969322-69.436104-69.168974L176.306087 69.142261C176.306087 30.942609 207.391165 0 245.742191 0c38.324313 0 69.409391 30.942609 69.409391 69.142261l0 72.445774C315.160487 179.787687 284.066504 210.748104 245.742191 210.748104z" p-id="37931" fill="#bbbbbb"></path></svg>