<?xml version="1.0" standalone="no"?><!DOCTYPE svg PUBLIC "-//W3C//DTD SVG 1.1//EN" "http://www.w3.org/Graphics/SVG/1.1/DTD/svg11.dtd"><svg t="1515120791245" class="icon" style="" viewBox="0 0 1024 1024" version="1.1" xmlns="http://www.w3.org/2000/svg" p-id="1041" xmlns:xlink="http://www.w3.org/1999/xlink" width="21" height="21"><defs><style type="text/css"></style></defs><path d="M869.668 870.702V132.326c0-50.933-35.436-70.113-69.458-70.113H245.356c-70.436 0-83.052 27.612-83.052 69.678l0.973 738.8-143.821 1.306v87.865l999.424 2.59-3.553-90.455-145.66-1.295z m-551.03-684.826l138.107-0.43-0.323 148.895-138.214 0.425 0.43-148.89z m139.08 244.414l-0.328 148.895-138.214 0.425 0.435-148.885 138.107-0.435z m1.075 444.83l-141.343 0.436 1.193-198.697 140.913-1.403-0.763 199.665z m264.253-50.672l-138.209 0.435 0.43-148.997 138.107-0.435-0.328 148.997z m0-245.279l-138.209 0.435 0.43-148.884 138.107-0.435-0.328 148.884z m0-244.833l-138.209 0.43 0.43-148.89 138.107-0.43-0.328 148.89z" p-id="1042" fill="#bbbbbb"></path></svg>