<?xml version="1.0" standalone="no"?><!DOCTYPE svg PUBLIC "-//W3C//DTD SVG 1.1//EN" "http://www.w3.org/Graphics/SVG/1.1/DTD/svg11.dtd"><svg t="1515142462800" class="icon" style="" viewBox="0 0 1396 1024" version="1.1" xmlns="http://www.w3.org/2000/svg" p-id="15540" xmlns:xlink="http://www.w3.org/1999/xlink" width="28.62890625" height="21"><defs><style type="text/css"></style></defs><path d="M1395.572364 126.557091a142.941091 142.941091 0 0 1-41.285819 84.293818l-553.05309 546.722909a146.990545 146.990545 0 0 1-205.73091 0L42.496 210.850909a141.591273 141.591273 0 0 1-41.332364-84.293818 141.870545 141.870545 0 0 0-1.163636 17.733818v735.418182a145.082182 145.082182 0 0 0 145.501091 143.825454h1105.733818a145.128727 145.128727 0 0 0 145.501091-143.825454V144.290909a141.544727 141.544727 0 0 0-1.163636-17.873454m-594.338909 526.42909l579.816727-573.253818a145.966545 145.966545 0 0 0-129.768727-79.127272h-1105.780364a145.966545 145.966545 0 0 0-129.768727 79.127272l579.770181 573.253818a146.990545 146.990545 0 0 0 205.73091 0m0 0z" fill="#bbbbbb" p-id="15541"></path></svg>