<?xml version="1.0" standalone="no"?><!DOCTYPE svg PUBLIC "-//W3C//DTD SVG 1.1//EN" "http://www.w3.org/Graphics/SVG/1.1/DTD/svg11.dtd"><svg t="1510812791373" class="icon" style="" viewBox="0 0 1024 1024" version="1.1" xmlns="http://www.w3.org/2000/svg" p-id="1004" xmlns:xlink="http://www.w3.org/1999/xlink" width="16" height="16"><defs><style type="text/css"></style></defs><path d="M512 0C229.231678 0 0 229.231678 0 512s229.231678 512 512 512 512-229.231678 512-512S794.768322 0 512 0z m260.719105 640.160358a32.163221 32.163221 0 0 1-42.7583 15.130917l-231.556868-110.463713a36.905235 36.905235 0 0 1-19.712572-30.926175v-366.532438a32.163221 32.163221 0 0 1 32.071588-32.071589 32.163221 32.163221 0 0 1 32.071588 32.071589v347.633109l214.753647 102.468725a32.163221 32.163221 0 0 1 15.130917 42.689575z" fill="#9a9a9a" p-id="1005"></path></svg>