<?xml version="1.0" standalone="no"?><!DOCTYPE svg PUBLIC "-//W3C//DTD SVG 1.1//EN" "http://www.w3.org/Graphics/SVG/1.1/DTD/svg11.dtd"><svg t="1515573712969" class="icon" style="" viewBox="0 0 1024 1024" version="1.1" xmlns="http://www.w3.org/2000/svg" p-id="1869" xmlns:xlink="http://www.w3.org/1999/xlink" width="32" height="32"><defs><style type="text/css"></style></defs><path d="M933.454933 745.066667c0 31.562667-1.943467 78.2528-5.809067 140.085333-2.5792 32.132267-14.946133 57.8048-37.111467 76.768-22.229333 18.973867-49.467733 29.077333-81.655467 30.389333-63.6992 3.178667-159.336533 4.814933-286.781867 4.814933-128.157867 0-223.733333-1.636267-286.792533-4.814933-32.221867-1.312-59.3984-11.4176-81.608533-30.389333-22.225067-18.965333-34.5984-44.637867-37.218133-76.768-3.818667-61.819733-5.749333-108.522667-5.749333-140.085333 0-31.5456 1.9456-78.2208 5.749333-140.040533 2.6048-32.1472 15.005867-57.732267 37.218133-76.750933 22.1952-18.961067 49.386667-29.092267 81.608533-30.429867 63.076267-3.172267 158.647467-4.795733 286.792533-4.795733 128.0832 0 223.7056 1.608533 286.769067 4.795733 32.202667 1.320533 59.426133 11.4688 81.6512 30.429867 22.1696 19.018667 34.5344 44.6016 37.1136 76.750933C931.534933 666.845867 933.454933 713.521067 933.454933 745.066667L933.454933 745.066667zM288.418133 619.541333l58.877867 0 0-48.283733L174.417067 571.2576l0 48.283733 57.941333 0 0 282.978133 56.059733 0L288.418133 619.541333 288.418133 619.541333zM343.4176 31.447467l70.5088 0L360.810667 190.773333c-2.6176 7.714133-5.762133 16.6016-9.640533 26.551467-3.8912 9.9904-7.217067 19.005867-10.180267 27.022933-2.914133 8.078933-5.333333 16.919467-7.202133 26.5472l0 169.960533-69.5744 0 0-44.913067 0-79.1552 0-38.152533c-1.271467-7.712-10.577067-35.0912-27.991467-82.069333L181.2096 31.434667l70.4768 0 44.407467 163.189333 4.8128 0L343.4176 31.447467 343.4176 31.447467zM439.050667 902.519467l49.233067 0L488.283733 658.1696l-49.233067 0 0 185.3696c-10.9312 12.279467-20.891733 18.3488-29.924267 18.3488-8.349867 0-12.5696-5.457067-12.5696-16.3904l0-187.328-50.186667 0 0 205.678933c0 28.324267 11.5264 42.487467 34.754133 42.487467 19.330133 0 38.596267-10.272 57.9264-30.871467L439.050667 902.519467 439.050667 902.519467zM589.6384 209.1392l0 156.4416c0 27.035733-8.034133 47.639467-24.1344 61.802667-16.072533 14.167467-37.962667 21.2288-65.659733 21.2288-26.397867 0-47.765333-7.541333-64.213333-22.666667-16.401067-15.101867-24.6336-35.5968-24.6336-61.326933L410.997333 208.174933c0-25.111467 8.878933-44.258133 26.5664-57.454933 17.704533-13.213867 39.453867-19.808 65.224533-19.808 24.445867 0 45.021867 7.0848 61.768533 21.248C581.2672 166.340267 589.6384 185.3184 589.6384 209.1392L589.6384 209.1392zM526.909867 370.3936 526.909867 205.2608c0-6.410667-2.894933-11.741867-8.6912-15.9424-5.762133-4.1536-11.8912-6.254933-18.3616-6.254933-6.436267 0-12.264533 2.101333-17.3952 6.254933-5.134933 4.200533-7.694933 9.518933-7.694933 15.9424l0 165.1328c0 16.750933 8.322133 25.124267 25.090133 25.124267C517.902933 395.517867 526.909867 387.144533 526.909867 370.3936L526.909867 370.3936zM680.456533 851.278933l0-135.2128c0-40.546133-16.113067-60.808533-48.270933-60.808533-16.125867 0-30.929067 7.3728-44.448 22.1952l0-106.261333-50.171733 0 0 331.264 50.152533 0 0-19.357867c14.244267 14.856533 29.986133 22.208 47.381333 22.208C665.3312 905.4016 680.456533 887.3792 680.456533 851.278933L680.456533 851.278933zM629.288533 718.0736l0 128.405333c0 13.550933-5.8112 20.2944-17.412267 20.2944-9.013333 0-17.056-3.5712-24.157867-10.621867l0-152.5824c6.442667-6.461867 13.525333-9.698133 21.2928-9.698133C622.5024 693.870933 629.288533 701.960533 629.288533 718.0736L629.288533 718.0736zM818.536533 138.641067l0 302.261333L756.714667 440.9024l0-33.781333c-23.8336 25.090133-47.652267 37.674667-71.445333 37.674667-28.983467 0-43.424-18.024533-43.424-54.109867L641.845333 138.641067l61.76 0 0 231.778133c0 13.506133 5.44 20.264533 16.445867 20.264533 10.8864 0 23.1488-7.694933 36.6656-23.146667L756.7168 138.641067 818.536533 138.641067 818.536533 138.641067zM864.872533 832.977067l0-18.397867-51.195733 0c0 1.320533 0.168533 5.489067 0.520533 12.586667 0.322133 7.067733 0.322133 12.046933 0 15.003733-0.384 2.884267-1.1648 6.5344-2.391467 11.082667-1.3184 4.475733-3.569067 7.726933-6.762667 9.6576-3.214933 1.947733-7.7504 2.882133-13.499733 2.882133-6.472533 0-11.451733-1.930667-14.993067-5.749333-3.5712-3.8784-5.501867-7.7696-5.8112-11.643733-0.337067-3.816533-0.4736-9.341867-0.4736-16.373333l0-46.368 94.638933 0L864.904533 723.882667c0-22.549333-6.133333-40.232533-18.346667-53.149867-12.206933-12.868267-29.589333-19.328-52.123733-19.328-21.888 0-40.098133 6.613333-54.600533 19.778133-14.436267 13.2096-21.6576 30.807467-21.6576 52.680533l0 109.141333c0 23.144533 6.286933 41.6448 18.7776 55.458133 12.586667 13.8112 30.4448 20.782933 53.623467 20.782933C840.119467 909.250133 864.872533 883.790933 864.872533 832.977067L864.872533 832.977067zM813.6768 720.906667l0 27.089067-43.4432 0 0-27.089067c0-17.3504 7.392-26.0416 22.242133-26.0416C806.624 694.865067 813.6768 703.569067 813.6768 720.906667L813.6768 720.906667zM813.6768 720.906667" p-id="1870" fill="#987543"></path></svg>